<svg xmlns="http://www.w3.org/2000/svg" width="512" height="512" viewBox="0 0 95.098 95.098"><path d="M4.85 9.007h86.6V85.57H4.85z" fill="#fff"/><path d="M92.96 0H2.137A2.14 2.14 0 0 0 0 2.137V92.96a2.14 2.14 0 0 0 2.137 2.137H92.96a2.14 2.14 0 0 0 2.137-2.137V2.137A2.14 2.14 0 0 0 92.961 0zM22.464 81.4a8.76 8.76 0 0 1-8.757-8.756 8.76 8.76 0 0 1 8.757-8.757 8.76 8.76 0 0 1 8.758 8.757 8.76 8.76 0 0 1-8.758 8.756zm33.528-.227c-.133.132-.3.207-.494.207H42.88c-.376 0-.683-.3-.692-.678a28.42 28.42 0 0 0-27.78-27.78c-.376-.01-.677-.316-.677-.693V39.604a.69.69 0 0 1 .207-.494c.133-.13.32-.204.497-.2 11.055.182 21.463 4.602 29.308 12.447S56 69.6 56.192 80.666c.001.185-.07.363-.2.496zm25.2.002a.7.7 0 0 1-.494.205H68.085c-.38 0-.688-.305-.693-.684-.36-28.85-24.126-52.614-52.976-52.975a.69.69 0 0 1-.684-.692V14.404a.69.69 0 0 1 .206-.493c.13-.13.286-.213.493-.2 17.776.182 34.512 7.228 47.122 19.838S81.2 62.893 81.4 80.67a.69.69 0 0 1-.2.495z" fill="#3498db"/></svg>