<svg xmlns="http://www.w3.org/2000/svg" height="512" viewBox="-20 -129 638.671 638" width="512"><g fill="#3498db"><path d="M478.906 132.813c-4.785.004-9.562.293-14.312.863-12.895-41.988-51.63-70.684-95.55-70.773-10.934-.012-21.79 1.805-32.12 5.363-25.578-55.31-86.195-85.367-145.7-72.25C131.71 9.137 89.355 61.89 89.398 122.824a127.84 127.84 0 0 0 3.891 31.223C36.594 162.703-3.914 213.516.3 270.715c4.207 57.203 51.72 101.543 109.07 101.797h369.535c66.19 0 119.848-53.66 119.848-119.852s-53.656-119.848-119.848-119.848zm0 219.723H109.37c-49.238.215-89.473-39.254-90.207-88.488s38.305-89.88 87.53-91.133a9.98 9.98 0 0 0 7.957-4.34c1.813-2.64 2.246-5.98 1.172-8.992C96 102.852 125.488 40.727 181.977 20.215s118.965 8.227 140.156 64.46a9.98 9.98 0 0 0 13.539 5.594c10.457-4.863 21.844-7.383 33.37-7.395 38 .07 70.723 26.836 78.313 64.07 1.086 5.414 6.36 8.914 11.766 7.82 6.512-1.305 13.137-1.97 19.785-1.977 55.16 0 99.875 44.72 99.875 99.87 0 55.16-44.715 99.875-99.875 99.875zm0 0"/><g fill-rule="evenodd"><rect ry="21.522" y="123.108" x="161.48" height="43.043" width="207.074"/><rect width="283.854" height="43.043" x="256.874" y="202.215" ry="21.522"/><rect ry="21.522" y="280.159" x="117.274" height="43.043" width="180.317"/><rect width="180.317" height="43.043" x="327.837" y="280.159" ry="21.522"/><rect ry="21.522" y="202.215" x="74.23" height="43.043" width="143.09"/></g></g></svg>