<?xml version="1.0" encoding="UTF-8" standalone="no"?>
<svg
   xmlns:dc="http://purl.org/dc/elements/1.1/"
   xmlns:cc="http://creativecommons.org/ns#"
   xmlns:rdf="http://www.w3.org/1999/02/22-rdf-syntax-ns#"
   xmlns:svg="http://www.w3.org/2000/svg"
   xmlns="http://www.w3.org/2000/svg"
   id="svg12"
   version="1.1"
   width="512px"
   viewBox="-20 -129 638.67144 638"
   height="512px">
  <metadata
     id="metadata18">
    <rdf:RDF>
      <cc:Work
         rdf:about="">
        <dc:format>image/svg+xml</dc:format>
        <dc:type
           rdf:resource="http://purl.org/dc/dcmitype/StillImage" />
        <dc:title></dc:title>
      </cc:Work>
    </rdf:RDF>
  </metadata>
  <defs
     id="defs16" />
  <g
     transform="translate(-9.306688,167.52038)"
     id="g4548">
    <g
       id="g4536"
       style="fill:#ffffff;stroke:#343434;stroke-width:1.41438067;stroke-miterlimit:4;stroke-dasharray:none;stroke-opacity:1"
       transform="matrix(1.0392109,0,0,1.0392587,0.10938324,-13.135833)">
      <rect
         rx="0"
         ry="0"
         y="-264.85754"
         x="-2.0750346"
         height="598.75446"
         width="598.75446"
         id="rect827"
         style="opacity:1;vector-effect:none;fill:#ffffff;fill-opacity:1;fill-rule:evenodd;stroke:#343434;stroke-width:2.32274389;stroke-linecap:butt;stroke-linejoin:miter;stroke-miterlimit:4;stroke-dasharray:none;stroke-dashoffset:0;stroke-opacity:1" />
    </g>
    <g
       id="g4547"
       transform="translate(9.692204,-159.9972)">
      <g
         id="g4533">
        <path
           style="fill:#4d4d4d"
           id="path20"
           d="m 478.90625,132.8125 c -4.78516,0.004 -9.5625,0.29297 -14.3125,0.86328 -12.89453,-41.98828 -51.62891,-70.683592 -95.55078,-70.773436 -10.9336,-0.01172 -21.78906,1.804687 -32.1211,5.363281 -25.57812,-55.308594 -86.19531,-85.367187 -145.69921,-72.25 -59.51172,13.121094 -101.867191,65.875 -101.824222,126.808595 0.0039,10.53125 1.316406,21.01953 3.890624,31.22265 -56.695312,8.65625 -97.203124,59.46875 -92.988281,116.66797 4.207031,57.20313 51.71875,101.54297 109.070309,101.79688 h 369.53516 c 66.19141,0 119.84766,-53.66016 119.84766,-119.85156 0,-66.19141 -53.65625,-119.84766 -119.84766,-119.84766 z m 0,219.72266 H 109.37109 C 60.132812,352.75 19.898438,313.28125 19.164062,264.04687 18.433594,214.8125 57.46875,174.16797 106.69531,172.91406 c 3.19532,-0.0898 6.15235,-1.70312 7.95703,-4.33984 1.8125,-2.64063 2.2461,-5.98047 1.17188,-8.99219 C 96,102.85156 125.48828,40.726562 181.97656,20.214844 c 56.48438,-20.511719 118.96485,8.226562 140.15625,64.460937 0.96875,2.609375 2.97657,4.691407 5.54688,5.753907 2.57422,1.0625 5.46875,1.003906 7.99219,-0.160157 10.45703,-4.863281 21.84375,-7.382812 33.37109,-7.394531 38,0.07031 70.72266,26.83594 78.3125,64.07031 1.08594,5.41406 6.35937,8.91406 11.76562,7.82031 6.51172,-1.30468 13.13672,-1.96875 19.78516,-1.97656 55.16016,0 99.875,44.71875 99.875,99.8711 0,55.16015 -44.71484,99.875 -99.875,99.875 z m 0,0" />
      </g>
      <rect
         ry="21.521715"
         y="123.1082"
         x="161.48042"
         height="43.04343"
         width="207.07381"
         id="rect4530"
         style="opacity:1;vector-effect:none;fill:#3498db;fill-opacity:1;fill-rule:evenodd;stroke-width:1;stroke-linecap:butt;stroke-linejoin:miter;stroke-miterlimit:4;stroke-dasharray:none;stroke-dashoffset:0;stroke-opacity:1" />
      <rect
         style="opacity:1;vector-effect:none;fill:#3498db;fill-opacity:1;fill-rule:evenodd;stroke-width:1.17080593;stroke-linecap:butt;stroke-linejoin:miter;stroke-miterlimit:4;stroke-dasharray:none;stroke-dashoffset:0;stroke-opacity:1"
         id="rect4532"
         width="283.85397"
         height="43.04343"
         x="256.87399"
         y="202.21504"
         ry="21.521715" />
      <rect
         ry="21.521715"
         y="280.15851"
         x="117.27366"
         height="43.04343"
         width="180.31708"
         id="rect4534"
         style="opacity:1;vector-effect:none;fill:#3498db;fill-opacity:1;fill-rule:evenodd;stroke-width:0.93315941;stroke-linecap:butt;stroke-linejoin:miter;stroke-miterlimit:4;stroke-dasharray:none;stroke-dashoffset:0;stroke-opacity:1" />
      <rect
         style="opacity:1;vector-effect:none;fill:#3498db;fill-opacity:1;fill-rule:evenodd;stroke-width:0.93315941;stroke-linecap:butt;stroke-linejoin:miter;stroke-miterlimit:4;stroke-dasharray:none;stroke-dashoffset:0;stroke-opacity:1"
         id="rect4536"
         width="180.31708"
         height="43.04343"
         x="327.83746"
         y="280.15851"
         ry="21.521715" />
      <rect
         ry="21.521715"
         y="202.21504"
         x="74.230225"
         height="43.04343"
         width="143.09032"
         id="rect4538"
         style="opacity:1;vector-effect:none;fill:#3498db;fill-opacity:1;fill-rule:evenodd;stroke-width:0.83127087;stroke-linecap:butt;stroke-linejoin:miter;stroke-miterlimit:4;stroke-dasharray:none;stroke-dashoffset:0;stroke-opacity:1" />
    </g>
  </g>
</svg>
