<svg xmlns="http://www.w3.org/2000/svg" height="60" width="60"><g fill-rule="evenodd"><path d="M30 33.46l17.308-15H12.692zm-4.675-1.66L30 35.638l4.602-3.837 12.706 10.89H12.692zM11.538 41.54V19.615l12.692 10.96zm36.923 0V19.615L35.77 30.577z" fill="#fff"/><g fill="#3498db"><rect ry="9.148" y="15" x="6.61" height="32.797" width="47.034"/><path d="M2.996 0h54.008C58.66 0 60 1.337 60 2.996v54.008C60 58.66 58.663 60 57.004 60H2.996C1.34 60 0 58.663 0 57.004V2.996C0 1.34 1.337 0 2.996 0z"/></g><g transform="matrix(.336691 0 0 .336691 22.895247 8.086542)" fill="#fff"><rect width="80.295" height="19.311" x="-47.166" y="8.167" ry="9.148"/><rect ry="9.148" y="8.167" x="42.615" height="19.311" width="46.754"/><rect width="113.836" height="19.311" x="-47.166" y="38.997" ry="9.148"/><rect ry="9.148" y="71.522" x="-47.166" height="19.311" width="34.896"/><rect width="51.158" height="19.311" x="-2.445" y="71.522" ry="9.148"/><rect ry="9.148" y="71.522" x="58.2" height="19.311" width="31.169"/><rect ry="9.148" y="102.691" x="-47.166" height="19.311" width="77.585"/><rect width="48.787" height="19.311" x="40.583" y="102.691" ry="9.148"/></g></g></svg>